<svg width="676" height="600" viewBox="0 0 676 600" fill="none" xmlns="http://www.w3.org/2000/svg">
<g opacity="0.3" filter="url(#filter0_f_102_64)">
<path d="M292 597C342.784 597 384 555.784 384 505V413H292C241.216 413 200 454.216 200 505C200 555.784 241.216 597 292 597Z" fill="#0ACF83"/>
<path d="M200 321C200 270.216 241.216 229 292 229H384V413H292C241.216 413 200 371.784 200 321Z" fill="#A259FF"/>
<path d="M200 137C200 86.216 241.216 45 292 45H384V229H292C241.216 229 200 187.784 200 137Z" fill="#F24E1E"/>
<path d="M384 45H476C526.784 45 568 86.216 568 137C568 187.784 526.784 229 476 229H384V45Z" fill="#FF7262"/>
<path d="M568 321C568 371.784 526.784 413 476 413C425.216 413 384 371.784 384 321C384 270.216 425.216 229 476 229C526.784 229 568 270.216 568 321Z" fill="#1ABCFE"/>
</g>
<defs>
<filter id="filter0_f_102_64" x="0" y="-155" width="768" height="952" filterUnits="userSpaceOnUse" color-interpolation-filters="sRGB">
<feFlood flood-opacity="0" result="BackgroundImageFix"/>
<feBlend mode="normal" in="SourceGraphic" in2="BackgroundImageFix" result="shape"/>
<feGaussianBlur stdDeviation="100" result="effect1_foregroundBlur_102_64"/>
</filter>
</defs>
</svg>
