<svg width="191" height="72" viewBox="0 0 191 72" fill="none" xmlns="http://www.w3.org/2000/svg">
<g filter="url(#filter0_d_102_34)">
<path fill-rule="evenodd" clip-rule="evenodd" d="M163.375 55.6781V64H178.41C181.49 64 186.778 61.7471 186.961 55.4483V52.2299C186.961 46.8506 182.548 43.6782 178.41 43.6782H170.915V39.8161H185.766V31.4483H171.513C167.835 31.4483 162.916 34.4827 162.916 40.1379V43.0345C162.916 48.6896 167.789 51.5862 171.513 51.5862C181.858 51.6322 169.03 51.5862 178.594 51.5862V55.6322L163.375 55.6781ZM82.8236 53.6552C82.8236 53.6552 90.8695 52.9655 90.8695 42.5747C90.8695 32.1839 81.1224 31.2184 81.1224 31.2184H63.5592V64H72.3868V56.0919L80.019 64H93.0764L82.8236 53.6552ZM79.4213 46.9425H72.3868V39.4483H79.4672C79.4672 39.4483 81.4443 40.1839 81.4443 43.1724C81.4443 46.1609 79.4213 46.9425 79.4213 46.9425ZM112.663 31.4483H103.697C97.3063 31.4483 95.1454 37.2414 95.1454 40V64H104.111V58.2529H112.525V64H121.214V40C121.214 33.0115 114.87 31.4483 112.663 31.4483ZM112.525 48.9655H104.065V41.0115C104.065 41.0115 104.065 39.2184 106.87 39.2184H109.95C112.433 39.2184 112.479 41.0115 112.479 41.0115V48.9655H112.525Z" fill="white"/>
<path d="M134.64 31.4483H125.306V64H134.64V31.4483Z" fill="white"/>
<path fill-rule="evenodd" clip-rule="evenodd" d="M147.743 55.5862V31.4483H138.456V55.5862V64H147.743H160.295V55.5862H147.743Z" fill="white"/>
<path fill-rule="evenodd" clip-rule="evenodd" d="M8.15692 64H44.4787C44.4787 64 37.5362 32.3218 60.5247 19.4943C65.5362 17.0575 81.4902 7.95404 107.605 27.2644C108.433 26.5747 109.214 26.023 109.214 26.023C109.214 26.023 85.3063 2.16094 58.6856 4.8276C45.3063 6.02301 28.8466 18.2069 19.1914 34.2989C9.53623 50.3908 8.15692 64 8.15692 64Z" fill="white"/>
<path fill-rule="evenodd" clip-rule="evenodd" d="M8.15692 64H44.4787C44.4787 64 37.5362 32.3218 60.5247 19.4943C65.5362 17.0575 81.4902 7.95404 107.605 27.2644C108.433 26.5747 109.214 26.023 109.214 26.023C109.214 26.023 85.3063 2.16094 58.6856 4.8276C45.3063 6.02301 28.8466 18.2069 19.1914 34.2989C9.53623 50.3908 8.15692 64 8.15692 64Z" fill="white"/>
<path fill-rule="evenodd" clip-rule="evenodd" d="M8.15692 64H44.4787C44.4787 64 37.5362 32.3218 60.5247 19.4943C65.5362 17.0575 81.4902 7.95403 107.605 27.2644C108.433 26.5747 109.214 26.023 109.214 26.023C109.214 26.023 85.3063 2.16092 58.6856 4.82759C45.2604 6.02299 28.8006 18.2069 19.1454 34.2988C9.49025 50.3908 8.15692 64 8.15692 64ZM83.8351 7.4023L84.019 4.32184C83.6052 4.09196 82.4557 3.54023 79.5592 2.71265L79.3753 5.74713C80.8925 6.25288 82.3638 6.8046 83.8351 7.4023Z" fill="white"/>
<path fill-rule="evenodd" clip-rule="evenodd" d="M79.4673 17.1494L79.2833 20.046C80.8006 20.0919 82.3178 20.2759 83.8351 20.5977L84.019 17.7471C82.4558 17.4253 80.9385 17.2414 79.4673 17.1494ZM62.4558 2.8046H62.9155L61.996 0C60.5707 0 59.0994 0.091954 57.5822 0.275862L58.4558 2.9885C59.7891 2.85057 61.1224 2.8046 62.4558 2.8046ZM64.6627 19.7241L65.7201 22.8965C67.0535 22.2529 68.3868 21.7011 69.7201 21.2873L68.7086 18.2529C67.1454 18.7126 65.8121 19.2184 64.6627 19.7241ZM43.7891 7.63218L41.7201 4.45977C40.5707 5.05747 39.3753 5.70115 38.1339 6.43678L40.2489 9.65517C41.4443 8.91954 42.5937 8.22988 43.7891 7.63218ZM53.2144 28.3218L55.4213 31.6322C56.2029 30.4827 57.1224 29.4253 58.1339 28.3678L56.065 25.2414C55.0075 26.2069 54.042 27.2644 53.2144 28.3218ZM46.5477 43.1264L50.2719 46.069C50.4558 44.2758 50.7776 42.4827 51.2374 40.6896L47.927 38.069C47.3293 39.7701 46.9155 41.4712 46.5477 43.1264ZM26.4098 21.2873L23.1454 18.4368C21.95 19.5862 20.8006 20.7356 19.7431 21.885L23.2834 24.9195C24.2489 23.6782 25.3063 22.4368 26.4098 21.2873ZM12.5247 41.8391L7.23739 39.908C6.36382 41.885 5.39831 44.1839 4.93854 45.4253L10.2259 47.3563C10.8236 45.7931 11.7891 43.5402 12.5247 41.8391ZM45.8581 54.8046C45.95 57.2414 46.1799 59.2184 46.4098 60.5977L51.927 62.5747C51.5132 60.7816 51.0994 58.7586 50.8236 56.5977L45.8581 54.8046Z" fill="white"/>
</g>
<defs>
<filter id="filter0_d_102_34" x="0.938538" y="0" width="190.023" height="72" filterUnits="userSpaceOnUse" color-interpolation-filters="sRGB">
<feFlood flood-opacity="0" result="BackgroundImageFix"/>
<feColorMatrix in="SourceAlpha" type="matrix" values="0 0 0 0 0 0 0 0 0 0 0 0 0 0 0 0 0 0 127 0" result="hardAlpha"/>
<feOffset dy="4"/>
<feGaussianBlur stdDeviation="2"/>
<feComposite in2="hardAlpha" operator="out"/>
<feColorMatrix type="matrix" values="0 0 0 0 0 0 0 0 0 0 0 0 0 0 0 0 0 0 0.1 0"/>
<feBlend mode="normal" in2="BackgroundImageFix" result="effect1_dropShadow_102_34"/>
<feBlend mode="normal" in="SourceGraphic" in2="effect1_dropShadow_102_34" result="shape"/>
</filter>
</defs>
</svg>
