<svg width="171" height="120" viewBox="0 0 171 120" fill="none" xmlns="http://www.w3.org/2000/svg">
<g filter="url(#filter0_d_102_32)">
<path d="M64.9922 78.4093C64.2766 78.2805 63.9961 78.2317 63.7157 78.1797C54.6508 76.4939 48.9205 71.0086 46.2051 62.3852C44.5124 57.0102 47.5882 53.0519 53.2258 52.7911C57.842 52.5773 61.0016 55.2306 63.7957 58.3178C67.3974 62.2983 70.699 66.5484 74.2367 70.5885C79.33 76.4045 85.3312 80.1496 93.5422 78.9937C100.905 77.957 107.321 75.0024 112.904 70.1394C113.743 69.4085 114.664 68.7715 115.548 68.0907C115.362 67.8719 115.177 67.653 114.991 67.4341C110.304 68.8895 105.524 69.3787 100.64 69.1331C93.2503 68.7614 86.2086 67.2184 79.908 63.1611C74.1587 59.4585 69.9187 54.4972 67.903 47.8704C66.2751 42.517 69.6072 38.7718 75.1547 39.5459C77.348 39.8517 79.1942 40.8395 80.8514 42.2403C82.2009 43.3798 83.4951 44.5878 84.8712 45.693C91.3464 50.8961 100.394 51.1854 108.613 45.5363C95.101 45.4747 85.9079 38.0422 77.8334 28.6227C74.6732 24.9359 71.5879 21.1832 68.3624 17.5548C62.1214 10.5334 55.1977 4.34758 45.7172 2.23742C33.6069 -0.458333 21.9154 1.30352 10.6934 6.44314C8.4557 7.46777 6.30684 8.65925 4 10.5791C5.142 10.5791 5.76502 10.593 6.38678 10.5772C12.0447 10.4313 16.2847 12.9456 19.3427 17.5738C21.5684 20.9421 22.6171 24.7513 23.4165 28.6702C24.6029 34.4862 23.9888 40.4157 24.674 46.2583C26.4352 61.2787 34.112 71.7604 48.406 77.1278C53.6477 79.0964 59.024 79.7518 64.9922 78.4093ZM28.8676 9.89134C26.609 10.4611 24.804 9.54938 22.9438 7.66698C26.1294 6.8733 28.9387 6.56559 31.9574 6.44695C31.7106 8.40675 30.5546 9.46627 28.8676 9.89134ZM102.881 97.6038C102.684 96.1579 101.449 95.5209 100.477 94.7647C96.1808 91.4205 91.156 90.2366 85.8286 90.1383C82.6494 90.0799 79.5032 89.8426 76.5048 88.7279C75.1306 88.2172 73.5934 87.5612 73.6283 85.7854C73.6632 83.9836 75.2309 83.4741 76.6577 83.0478C77.8257 82.6988 79.0312 82.4761 80.361 82.1652C76.9832 80.0005 73.6835 79.7004 69.2868 81.4686C62.3656 84.2513 55.5422 83.9214 48.6426 81.4299C44.7471 80.024 41.2901 77.8168 37.6909 75.862L37.5925 75.9299C37.6395 75.8976 37.6889 75.8633 37.6858 75.8652C37.597 75.5937 37.4358 75.5867 37.229 75.7383C37.3235 75.8208 37.4174 75.9033 37.5113 75.9858C40.4964 80.878 44.5289 84.814 49.0842 88.1779C57.8573 94.6555 67.4399 98.5187 78.6524 96.8044C82.2738 96.2505 85.9225 95.821 89.575 95.5266C94.1544 95.1567 98.5175 96.4453 102.881 97.6038ZM81.7415 27.4223C81.4992 27.2465 81.2663 26.8056 80.7715 27.2618C84.8053 32.718 89.9874 36.7404 96.2271 39.2724C106.298 43.3589 116.519 44.058 126.972 40.4519C135.088 37.6527 140.924 40.3878 143.955 48.2676C144.393 39.1214 139.013 32.4572 130.442 31.1509C125.62 30.4162 121.168 32.0157 116.652 33.3258C104.083 36.97 92.4027 35.1707 81.7415 27.4223ZM144.385 63.0958C146.023 63.2334 147.66 63.3819 149.297 63.5253C145.597 60.275 141.087 60.0175 136.525 60.2769C129.578 60.6716 124.573 64.6781 120.01 69.465C115.989 73.684 112.357 78.4169 106.357 80.1122C106.457 80.2924 106.483 80.3825 106.511 80.3825C107.318 80.3945 108.127 80.4326 108.932 80.3958C117.646 80.0012 125.855 78.1632 132.385 71.839C134.442 69.8475 136.282 67.6352 138.267 65.5682C139.923 63.8444 141.931 62.8889 144.385 63.0958ZM124.141 52.2963C117.638 52.8647 111.989 55.5548 106.683 59.102C102.599 61.832 98.232 63.1237 93.3239 62.2697C92.4604 62.1194 91.5906 62.0071 90.724 61.877C90.7138 61.9982 90.7043 62.1187 90.6942 62.2399C91.0063 62.4004 91.3077 62.5882 91.6325 62.717C92.4503 63.0406 93.256 63.4301 94.1049 63.6319C103.549 65.8772 112.59 64.7269 120.741 59.4617C125.879 56.1429 131.198 55.5142 136.962 56.3713C137.545 56.4582 138.125 56.5642 138.709 56.6187C139.251 56.6701 139.817 57.2088 140.549 56.6257C135.509 52.9853 130.081 51.7773 124.141 52.2963ZM100.899 30.2221C104.311 30.3401 107.707 29.8934 111.275 27.7738C110.23 27.8664 109.786 27.8645 109.361 27.9495C104.446 28.9291 100.033 27.8569 96.1028 24.7494C94.6607 23.6086 93.1945 22.4984 91.734 21.3811C85.9441 16.9527 79.3046 15.4713 72.0422 15.5969C72.1595 15.9541 72.1665 16.199 72.2928 16.3259C80.1948 24.3186 89.3403 29.8237 100.899 30.2221ZM158.089 71.2312C153.199 66.3809 146.636 65.756 140.563 69.989C144.583 70.1698 147.601 71.452 150.048 73.986C150.914 74.8825 151.811 75.7624 152.78 76.5441C156.48 79.5285 162.753 79.6719 166.418 76.9032C162.113 75.2232 162.113 75.2232 158.089 71.2312ZM109.385 108.375C105.087 100.375 97.864 98.57 89.5198 99.1068C91.9865 99.7907 94.2902 100.843 96.4042 102.319C98.3462 103.675 99.9805 105.354 101.591 107.073C104.783 110.479 109.765 112.57 113.066 111.863C111.55 110.907 110.204 109.899 109.385 108.375ZM149.374 63.6902C149.376 63.6395 149.377 63.5881 149.38 63.5348C149.38 63.5342 149.374 63.5411 149.367 63.5481L149.381 63.5329C149.354 63.5304 149.325 63.5278 149.297 63.5253C149.314 63.5405 149.331 63.5526 149.348 63.5678C149.357 63.6084 149.366 63.6496 149.374 63.6902ZM103.119 97.7922C103.063 97.7599 103.006 97.7281 102.95 97.6964C102.957 97.7326 102.966 97.7681 102.985 97.7973C102.997 97.8163 103.073 97.7948 103.119 97.7922ZM102.95 97.6964C102.945 97.6704 102.94 97.6438 102.933 97.6177C102.933 97.6177 102.924 97.6298 102.914 97.6419L102.933 97.6184C102.916 97.6133 102.898 97.6089 102.881 97.6038C102.884 97.6254 102.891 97.6431 102.894 97.6653C102.913 97.6755 102.931 97.6863 102.95 97.6964Z" fill="white"/>
</g>
<defs>
<filter id="filter0_d_102_32" x="0" y="0.983093" width="170.418" height="119.017" filterUnits="userSpaceOnUse" color-interpolation-filters="sRGB">
<feFlood flood-opacity="0" result="BackgroundImageFix"/>
<feColorMatrix in="SourceAlpha" type="matrix" values="0 0 0 0 0 0 0 0 0 0 0 0 0 0 0 0 0 0 127 0" result="hardAlpha"/>
<feOffset dy="4"/>
<feGaussianBlur stdDeviation="2"/>
<feComposite in2="hardAlpha" operator="out"/>
<feColorMatrix type="matrix" values="0 0 0 0 0 0 0 0 0 0 0 0 0 0 0 0 0 0 0.1 0"/>
<feBlend mode="normal" in2="BackgroundImageFix" result="effect1_dropShadow_102_32"/>
<feBlend mode="normal" in="SourceGraphic" in2="effect1_dropShadow_102_32" result="shape"/>
</filter>
</defs>
</svg>
