<svg width="215" height="133" viewBox="0 0 215 133" fill="none" xmlns="http://www.w3.org/2000/svg">
<g filter="url(#filter0_d_102_42)">
<path d="M52.7393 32.3452H91.6982V35.4268H56.3105V58.6202H89.5879V61.7018H56.3105V87.1659H92.104V90.2475H52.7393V32.3452ZM95.1883 32.3452H99.3277L117.671 57.8092L136.42 32.3452L161.922 0L120.025 60.4854L141.614 90.2475H137.313L117.671 63.1616L97.9479 90.2475H93.7273L115.479 60.4854L95.1883 32.3452ZM143.157 35.4268V32.3452H187.553V35.4268H167.1V90.2475H163.529V35.4268H143.157Z" fill="white"/>
<path d="M4 32.3452H8.46405L70.0207 124.016L44.5823 90.2475L7.73357 36.7244L7.57124 90.2475H4V32.3452Z" fill="white"/>
<path d="M187.194 86.2359C187.932 86.2359 188.471 85.6733 188.471 84.9462C188.471 84.2192 187.932 83.6565 187.194 83.6565C186.464 83.6565 185.917 84.2192 185.917 84.9462C185.917 85.6733 186.464 86.2359 187.194 86.2359ZM190.703 82.8429C190.703 84.9895 192.258 86.3917 194.525 86.3917C196.939 86.3917 198.399 84.9462 198.399 82.4361V73.5987H196.453V82.4274C196.453 83.821 195.749 84.5654 194.507 84.5654C193.396 84.5654 192.64 83.8729 192.614 82.8429H190.703ZM200.944 82.7304C201.083 84.9635 202.95 86.3917 205.73 86.3917C208.7 86.3917 210.559 84.8943 210.559 82.5053C210.559 80.6271 209.5 79.5884 206.928 78.9912L205.547 78.6536C203.914 78.2727 203.254 77.7621 203.254 76.8705C203.254 75.7453 204.279 75.0096 205.817 75.0096C207.276 75.0096 208.283 75.728 208.466 76.8792H210.359C210.247 74.7759 208.388 73.2958 205.843 73.2958C203.107 73.2958 201.283 74.7759 201.283 77.0004C201.283 78.8354 202.316 79.926 204.583 80.454L206.199 80.8435C207.858 81.233 208.588 81.8042 208.588 82.7564C208.588 83.8643 207.441 84.6692 205.877 84.6692C204.201 84.6692 203.037 83.9162 202.872 82.7304H200.944Z" fill="white"/>
</g>
<defs>
<filter id="filter0_d_102_42" x="0" y="0" width="214.559" height="132.016" filterUnits="userSpaceOnUse" color-interpolation-filters="sRGB">
<feFlood flood-opacity="0" result="BackgroundImageFix"/>
<feColorMatrix in="SourceAlpha" type="matrix" values="0 0 0 0 0 0 0 0 0 0 0 0 0 0 0 0 0 0 127 0" result="hardAlpha"/>
<feOffset dy="4"/>
<feGaussianBlur stdDeviation="2"/>
<feComposite in2="hardAlpha" operator="out"/>
<feColorMatrix type="matrix" values="0 0 0 0 0 0 0 0 0 0 0 0 0 0 0 0 0 0 0.1 0"/>
<feBlend mode="normal" in2="BackgroundImageFix" result="effect1_dropShadow_102_42"/>
<feBlend mode="normal" in="SourceGraphic" in2="effect1_dropShadow_102_42" result="shape"/>
</filter>
</defs>
</svg>
