<svg width="94" height="94" viewBox="0 0 94 94" fill="none" xmlns="http://www.w3.org/2000/svg">
<path fill-rule="evenodd" clip-rule="evenodd" d="M9.17969 0H84.8203C89.8901 0 94 4.10989 94 9.17969V84.8203C94 89.8901 89.8901 94 84.8203 94H9.17969C4.10989 94 0 89.8901 0 84.8203V9.17969C0 4.10989 4.10989 0 9.17969 0ZM58.1992 75.087V74.7227L57.8504 74.8034C57.9658 74.8996 58.0821 74.9941 58.1992 75.087ZM58.1992 75.087V83.9023C59.6863 84.6734 61.5039 85.2426 63.5234 85.6281C65.543 86.0137 67.7461 86.1973 69.9492 86.1973C72.1524 86.1973 74.1719 85.9953 76.1914 85.573C78.2109 85.1508 79.8633 84.4531 81.332 83.5535C82.8191 82.5805 84.0859 81.3504 84.8203 79.698C85.5547 78.0457 86.1238 76.2098 86.1238 73.823C86.1238 72.1523 85.8668 70.702 85.3711 69.4168C84.8754 68.1316 84.1594 67.0301 83.168 66.1121C82.2316 65.1391 81.1484 64.2762 79.8633 63.5418C78.5781 62.8074 77.1094 62.0363 75.457 61.3387C74.706 61.0314 74.0397 60.7313 73.3792 60.4338C72.9741 60.2513 72.5712 60.0698 72.1524 59.8883C71.1977 59.4109 70.3715 58.9336 69.7656 58.4562C69.0863 57.9605 68.5723 57.4465 68.2051 56.9141C67.8379 56.3633 67.6543 55.7574 67.6543 55.0781C67.6543 54.4539 67.8177 53.8848 68.15 53.3707C68.4823 52.8566 68.9395 52.4344 69.527 52.0672C70.1145 51.7 70.8488 51.4246 71.7301 51.2227C72.593 51.0207 73.5477 50.9289 74.6676 50.9289C75.4387 50.9289 76.2465 50.9858 77.0543 51.1015C77.8988 51.2171 78.7617 51.3952 79.6246 51.6339C80.4875 51.8726 81.332 52.1663 82.1949 52.5335C83.0027 52.9007 83.7555 53.323 84.3981 53.8003V45.1714C83.0027 44.639 81.4606 44.2351 79.8082 43.978C78.1559 43.721 76.3199 43.5925 74.1168 43.5925C71.9137 43.5925 69.8941 43.8312 67.8746 44.2902C65.8551 44.7491 64.2027 45.4835 62.734 46.4933C61.2469 47.4847 60.1637 48.6964 59.2457 50.3487C58.3828 51.8909 57.9606 53.6534 57.9606 55.8566C57.9606 58.6105 58.75 60.9972 60.3473 62.8331C61.9262 64.8527 64.3863 66.3214 67.5074 67.7902C68.607 68.2364 69.5959 68.6826 70.5583 69.1168C70.7046 69.1828 70.8503 69.2486 70.9957 69.314C72.0973 69.8097 73.0152 70.3237 73.7496 70.8562C74.5391 71.3886 75.1633 71.9761 75.5856 72.6003C76.0445 73.2245 76.2832 73.9589 76.2832 74.8034C76.2832 75.3909 76.14 75.9417 75.8609 76.4558C75.5819 76.9698 75.1449 77.4105 74.5574 77.7777C73.9699 78.1448 73.2539 78.4386 72.3543 78.6589C71.4914 78.8609 70.5184 78.971 69.2332 78.971C67.2137 78.971 65.1941 78.6222 63.3582 77.9245C61.4797 77.2756 59.76 76.3248 58.1992 75.087ZM54.5273 52.1406H42.7773V85.7383H33.4141V52.1406H21.6641V44.6133H54.5273V52.1406Z" fill="white"/>
</svg>
