<svg width="46" height="44" viewBox="0 0 46 44" fill="none" xmlns="http://www.w3.org/2000/svg">
<path fill-rule="evenodd" clip-rule="evenodd" d="M23.3917 4.31589C23.4795 4.24947 23.6012 4.25116 23.6872 4.31998L39.8109 17.2295L23.5444 28.3928L6.3173 17.2271L23.3917 4.31589ZM1.6713 15.7254C1.47272 15.8672 1.29693 16.048 1.15616 16.2652C0.932319 16.6106 0.828582 16.9992 0.834465 17.3819V39.7594C0.834465 42.1014 2.73305 44 5.07508 44H40.9249C43.2669 44 45.1655 42.1014 45.1655 39.7594V17.379C45.171 16.9799 45.0575 16.5754 44.8145 16.2213C44.6896 16.0393 44.5399 15.8844 44.3731 15.7581L26.1872 1.1975C24.6722 -0.0154817 22.5271 -0.0451968 20.9791 1.12537L1.6713 15.7254ZM41.1655 21.1513V39.7594C41.1655 39.8923 41.0577 40 40.9249 40H5.07508C4.94219 40 4.83447 39.8923 4.83447 39.7594V21.0327L22.4883 32.475C23.1662 32.9144 24.0418 32.9028 24.7078 32.4457L41.1655 21.1513Z" fill="url(#paint0_linear_102_61)"/>
<defs>
<linearGradient id="paint0_linear_102_61" x1="45" y1="-5.19543e-07" x2="1" y2="44" gradientUnits="userSpaceOnUse">
<stop stop-color="#BC03FF"/>
<stop offset="1" stop-color="#53A9FF"/>
</linearGradient>
</defs>
</svg>
