<svg width="22" height="24" viewBox="0 0 22 24" fill="none" xmlns="http://www.w3.org/2000/svg">
<path fill-rule="evenodd" clip-rule="evenodd" d="M9.97101 2.78351C10.6044 2.4035 11.3956 2.4035 12.029 2.78352L19.029 6.98353C19.6314 7.34497 20 7.99599 20 8.69851V15.3014C20 16.0039 19.6314 16.6549 19.029 17.0164L12.029 21.2164C11.3956 21.5965 10.6044 21.5965 9.97099 21.2164L2.97099 17.0164C2.36859 16.6549 2 16.0039 2 15.3014V8.69841C2 7.99588 2.36861 7.34486 2.97103 6.98341L9.97101 2.78351ZM13.058 1.06853C11.7913 0.308501 10.2088 0.308492 8.94203 1.06851L1.94205 5.26842C0.737211 5.9913 0 7.29334 0 8.69841V15.3014C0 16.7064 0.737182 18.0084 1.94199 18.7313L8.94198 22.9314C10.2087 23.6915 11.7913 23.6915 13.058 22.9314L20.058 18.7313C21.2628 18.0084 22 16.7064 22 15.3014V8.69851C22 7.29346 21.2628 5.99143 20.058 5.26854L13.058 1.06853ZM8 12C8 10.3431 9.34315 9 11 9C12.6569 9 14 10.3431 14 12C14 13.6569 12.6569 15 11 15C9.34315 15 8 13.6569 8 12ZM11 7C8.23858 7 6 9.23858 6 12C6 14.7614 8.23858 17 11 17C13.7614 17 16 14.7614 16 12C16 9.23858 13.7614 7 11 7Z" fill="black" fill-opacity="0.8"/>
</svg>
